<svg xmlns="http://www.w3.org/2000/svg" viewBox="0 0 32 32" fill="none">
  <rect width="32" height="32" rx="8" fill="url(#g)"/>
  <path d="M10 22V10h4.2c2.4 0 3.8 1.2 3.8 3 0 1.3-.7 2.2-1.8 2.6 1.4.3 2.3 1.4 2.3 3.1 0 2.2-1.5 3.3-4 3.3H10zm3-7.8h1.1c1 0 1.5-.4 1.5-1.2s-.5-1.2-1.5-1.2H13v2.4zm0 5.8h1.4c1.2 0 1.8-.5 1.8-1.4 0-.9-.6-1.4-1.8-1.4H13v2.8zM22 22l-3.2-5.2L22 10h-2.8l-2 3.4L15.2 10H12.4l3.2 5.2L12.4 22H15l2-3.5L19 22h3z" fill="white"/>
  <defs>
    <linearGradient id="g" x1="0" y1="0" x2="32" y2="32" gradientUnits="userSpaceOnUse">
      <stop stop-color="#6366f1"/>
      <stop offset="1" stop-color="#22d3ee"/>
    </linearGradient>
  </defs>
</svg>
